# xmcd CD database file
#
# Track frame offsets:
#	150
#	22122
#	41122
#	56307
#	75202
#	93862
#	115102
#	137530
#	159487
#	182030
#	219917
#
# Disc length: 3245 seconds
#
# Revision: 1
# Processed by: cddbd v1.5.2PL0 Copyright (c) Steve Scherf et al.
# Submitted via: CDex 1.70beta2
#
DISCID=800cab0b
DTITLE=LISA - Darling LISA Sings Keisuke Kuwata
DYEAR=1900
DGENRE=Jazz
TTITLE0=Darling ～ダーリン～
TTITLE1=Number One Girl ～NUMBER WANDA GIRL 恋するワンダ～
TTITLE2=No Maybe ～明日晴れるかな～
TTITLE3=We Just Met(Shaker Song) ～こんな僕で良かったら～
TTITLE4=Lovers Again ～風の詩を聴かせて～
TTITLE5=Hold On ～哀しみのプリズナー～
TTITLE6=White Love ～白い恋人達～
TTITLE7=Journey ～JOURNEY～
TTITLE8=One Day ～ONE DAY～
TTITLE9=Tear of Love ～現代東京奇譚～
TTITLE10=Moon Song ～月～
EXTD=
EXTT0=
EXTT1=
EXTT2=
EXTT3=
EXTT4=
EXTT5=
EXTT6=
EXTT7=
EXTT8=
EXTT9=
EXTT10=
PLAYORDER=
